# xmcd
#
# Track frame offsets: 
#        150
#        22074
#        37079
#        53553
#        70186
#        88201
#        99255
#        109882
#        123332
#        148600
#        166064
#        185969
#        210350
#
# Disc length: 2972 seconds
#
# Revision: 2
# Processed by: cddbd v1.5.2PL0 Copyright (c) Steve Scherf et al.
# Submitted via: ExactAudioCopy v1.0b3
#
DISCID=b60b9a0d
DTITLE=Various Artist - Хип-Хоп Квартал (Июль-Август-Сентябрь)
DYEAR=2003
DGENRE=Rap
TTITLE0=Рабы Лампы - Последнее Воскресение
TTITLE1=Смена Мнений - В Основе
TTITLE2=Sir-J - Гори-Гори Ясно
TTITLE3=B.I.C. - Облака
TTITLE4=M.Squad - Света
TTITLE5=Главные Герои И 6-ой Отряд - Угрозы
TTITLE6=Отверженные feat. Иезекииль 25:17 - Законы Жизни
TTITLE7=Третий Путь - Моно
TTITLE8=3db feat. Бледный - 3+25:17
TTITLE9=Gamlet feat. Самуэль - ЗаткниИМ
TTITLE10=Дремучий Лес - Дремучий Лес
TTITLE11=Отрицательное Влияние - Вопросы
TTITLE12=Красное Дерево - Дрова [Bonus Track]
EXTD=
EXTT0=
EXTT1=
EXTT2=
EXTT3=
EXTT4=
EXTT5=
EXTT6=
EXTT7=
EXTT8=
EXTT9=
EXTT10=
EXTT11=
EXTT12=
PLAYORDER=
